<?xml version="1.0" encoding="utf-8"?>
<!-- Generator: Adobe Illustrator 25.4.1, SVG Export Plug-In . SVG Version: 6.00 Build 0)  -->
<svg version="1.1" id="Capa_1" xmlns="http://www.w3.org/2000/svg" xmlns:xlink="http://www.w3.org/1999/xlink" x="0px" y="0px"
	 viewBox="0 0 1048.2 566.7" style="enable-background:new 0 0 1048.2 566.7;" xml:space="preserve">
<style type="text/css">
	.st0{fill:#444444;}
</style>
<g>
	<g>
		<path class="st0" d="M611.7,519.9c19.1-14.7-9.3-34.4-9.3-34.4s-10.3-7.9-16.2-12.8s-77.2,6.4-77.2,6.4l-10.4,13.4
			c0,0,23.5,2.2,45,3.8c15.3,1.1,30.6,2,41.7,13.4c3.1,3.2,5.7,8.1,9.1,10.8C598.1,523.4,606,524.3,611.7,519.9z"/>
	</g>
	<g>
		<path class="st0" d="M473.1,437.1c0,0,28.1-0.1,48.9,1.7c26.1,2.3,44.1,7,44.1,7s9,2.8,9,4.6c0,1.9-12.4,5.3-12.4,5.3
			s-29.6,6.7-50.8,6.3c-18.6-0.3-29.2,0-36.7,0s-13.9,10.2-13.9,16.2c0,6,5.3,16,14.9,16c9.6,0,42.1,0,42.1,0s33.8-3,50.9-7.7
			c17.1-4.7,48.6-13,48.6-34.3s-21.8-28.7-30-31s-79.2-13.8-111.9-13.8C457.3,407.5,461.4,437.1,473.1,437.1z"/>
	</g>
	<g>
		<g>
			<path class="st0" d="M450,364.6c0,0,0-21-1.8-28.1c-1.8-7.1-18.8-39.4-34.8-68.1s-31.1-73.5-12-128.9
				c21.3-62,84.9-91.4,120.3-94.8c32.3-3.1,71.3,1.6,104.9,25.7c34.7,24.9,60.7,67.8,60.7,116.3c0,49.5-12,63-36.1,109
				c-20.2,38.5-20.3,42.9-20.5,51.8c-0.2,8.9-0.6,25.2-0.6,25.2c-0.5,20.7-14.3,32.6-14.3,32.6s-13.1,13.9-38.4,19.1
				c-31.8,6.5-47.7,11.4-74.5,11s-21.2,0-30.5,0s-10.3-10.6-10.3-16s4.9-15,12.6-15.3c7.2-0.2,40.4-2.3,55.5-4.7s48.7-5.8,60.3-15.1
				c11.5-9.3,6.9-29.5,7.3-38.2c0.4-8.8,1.4-18.8,11.9-41.4s25-44.3,25-44.3s17.2-29.7,20-54.2c3.5-31.1-4.1-54.1-13-69.5
				c-9.2-16-26.2-33.9-37.2-41.3c-18.2-12.3-37.6-19.2-64.6-19.2c-27,0-53.8,9.4-77.7,30.2c-13.5,11.7-27.7,32.2-34,57
				c-5.5,21.6-2.8,57.9,7.5,76.2c10.3,18.3,27.1,50.6,27.1,50.6s6.6,11.9,9.7,19.6c2.3,5.7,8.2,16.8,8.6,27.2
				c0.6,14.1,0.7,24.2,0.7,31.2s-6.2,12.4-15.2,12.4S450,375.1,450,364.6z"/>
		</g>
	</g>
	<g>
		<path class="st0" d="M87,420.7c8.8,0,16.9,2.2,24.5,6.6c7.6,4.4,13.6,10.4,18.1,18.1c4.5,7.7,6.9,16.1,7.1,25.1
			c0.2,4.6-0.2,9.1-1.3,13.5c-1,4.4-2.6,8.6-4.8,12.6c-2.1,4-4.7,7.6-7.8,10.9c-3,3.3-6.5,6.1-10.2,8.4c-3.8,2.3-7.7,4-11.9,5.2
			c-4.2,1.2-8.5,1.8-12.9,1.8H62.6c-2.6,0-4.8-1-6.7-2.9c-1.9-1.9-2.9-4.3-2.9-7.1v-82.2c0-2.7,1-5,2.9-7c1.9-2,4.1-3,6.7-3H87z
			 M72,503.1h15.9c8.3,0,15.3-3.1,21.1-9.2c5.8-6.1,8.7-13.5,8.7-22.1c0-8.6-2.9-16-8.7-22.1c-5.8-6.1-12.9-9.2-21.1-9.2H72V503.1z"
			/>
	</g>
	<g>
		<path class="st0" d="M151,423.6c1.9-1.9,4.1-2.9,6.7-2.9c2.6,0,4.9,1,6.7,2.9c1.9,1.9,2.8,4.3,2.8,7.1v82.2c0,2.8-0.9,5.1-2.8,7.1
			s-4.1,2.9-6.7,2.9c-2.6,0-4.9-1-6.7-2.9c-1.9-1.9-2.8-4.3-2.8-7.1v-82.2C148.2,427.9,149.1,425.6,151,423.6z"/>
	</g>
	<g>
		<path class="st0" d="M235.2,503.1c2.6,0,4.8,1,6.6,2.9s2.8,4.3,2.8,7c0,2.7-0.9,5.1-2.8,7s-4.1,2.9-6.6,2.9H193
			c-2.6,0-4.8-1-6.7-2.9c-1.9-1.9-2.9-4.3-2.9-7.1v-82.2c0-2.7,1-5,2.9-7c1.9-2,4.1-3,6.7-3h42.1c2.6,0,4.8,1,6.6,2.9
			c1.9,1.9,2.8,4.3,2.8,7c0,2.7-0.9,5.1-2.8,7c-1.9,1.9-4.1,2.9-6.6,2.9h-32.7v21.3h20.4c2.7,0,4.9,1,6.8,2.9c1.9,1.9,2.8,4.3,2.8,7
			c0,2.7-0.9,5.1-2.8,7c-1.9,1.9-4.1,2.9-6.8,2.9h-20.4v21.3H235.2z"/>
	</g>
	<g>
		<path class="st0" d="M328.9,461.9c2.6,0,4.8,1,6.6,2.9c1.9,1.9,2.8,4.3,2.8,6.9v28.4c0,2.7-0.9,5-2.6,6.9
			c-4.5,5.1-9.8,9-15.9,11.8c-6.1,2.8-12.6,4.2-19.2,4.2h-1.9c-8.7,0-16.7-2.2-24.1-6.7c-7.4-4.5-13.2-10.6-17.5-18.3
			c-4.3-7.7-6.4-16.1-6.4-25.1v-1.9c0-9.1,2.1-17.4,6.4-25.1c4.3-7.7,10.1-13.8,17.5-18.3c7.4-4.5,15.4-6.7,24.1-6.7h2
			c9.5,0,18.3,2.8,26.4,8.4c2.5,1.8,3.8,4.3,4.1,7.5c0.2,3.2-0.8,5.9-3.1,8.1c-1.6,1.5-3.5,2.3-5.7,2.5c-2.2,0.2-4.2-0.3-6-1.6
			c-4.9-3.3-10.1-4.9-15.7-4.9h-2c-8,0-14.8,3-20.5,8.9c-5.7,5.9-8.5,13.1-8.5,21.4v1.9c0,8.4,2.8,15.5,8.5,21.4
			c5.7,5.9,12.5,8.9,20.5,8.9h2c7,0,13.2-2.4,18.6-7.2v-14.2h-9.9c-2.7,0-4.9-1-6.8-2.9c-1.9-1.9-2.8-4.3-2.8-7c0-2.7,0.9-5.1,2.8-7
			c1.9-1.9,4.1-2.9,6.8-2.9H328.9z"/>
	</g>
	<g>
		<path class="st0" d="M372,427.6c7.5-4.6,15.6-6.9,24.5-6.9c8.9,0,17,2.3,24.6,6.9c7.5,4.6,13.5,10.8,17.8,18.6
			c4.3,7.8,6.5,16.3,6.5,25.6c0,9.3-2.2,17.8-6.5,25.7c-4.3,7.9-10.3,14.1-17.8,18.6c-7.5,4.5-15.7,6.8-24.6,6.8
			c-8.9,0-17-2.3-24.5-6.8c-7.5-4.5-13.4-10.7-17.8-18.6c-4.4-7.9-6.6-16.4-6.6-25.7c0-9.3,2.2-17.8,6.6-25.6
			C358.6,438.3,364.5,432.1,372,427.6z M375.4,493.8c5.9,6.1,12.9,9.1,21.1,9.1c8.2,0,15.3-3,21.1-9.1c5.8-6.1,8.7-13.4,8.7-22
			c0-8.6-2.9-16-8.7-22.1c-5.8-6.1-12.8-9.2-21.1-9.2c-8.2,0-15.3,3.1-21.1,9.2c-5.9,6.1-8.8,13.5-8.8,22.1
			C366.6,480.4,369.5,487.8,375.4,493.8z"/>
	</g>
	<g>
		<path class="st0" d="M640.8,423.6c1.9-1.9,4.1-2.9,6.7-2.9c2.6,0,4.9,1,6.7,2.9c1.9,1.9,2.8,4.3,2.8,7.1v82.2
			c0,2.8-0.9,5.1-2.8,7.1s-4.1,2.9-6.7,2.9c-2.6,0-4.9-1-6.7-2.9c-1.9-1.9-2.8-4.3-2.8-7.1v-82.2C638,427.9,638.9,425.6,640.8,423.6
			z"/>
	</g>
	<g>
		<path class="st0" d="M741,420.6c3.2,0,5.8,1.4,7.7,4.1c1.9,2.7,2.3,5.7,1.3,9l-26.4,82.4c-0.7,2.1-1.8,3.8-3.5,5
			c-1.7,1.2-3.5,1.9-5.6,1.9h-6.3c-2,0-3.9-0.6-5.6-1.9c-1.7-1.2-2.9-2.9-3.6-5l-26.3-82.4c-1-3.3-0.5-6.3,1.4-9
			c1.9-2.7,4.5-4.1,7.7-4.1c2,0,3.8,0.6,5.5,1.9c1.7,1.2,2.8,2.9,3.5,5l20.4,64.2l20.7-64.2c0.7-2.1,1.8-3.8,3.4-5
			C737.1,421.2,738.9,420.6,741,420.6z"/>
	</g>
	<g>
		<path class="st0" d="M816.5,503.1c2.6,0,4.8,1,6.6,2.9s2.8,4.3,2.8,7c0,2.7-0.9,5.1-2.8,7s-4.1,2.9-6.6,2.9h-42.1
			c-2.6,0-4.8-1-6.7-2.9c-1.9-1.9-2.9-4.3-2.9-7.1v-82.2c0-2.7,1-5,2.9-7c1.9-2,4.1-3,6.7-3h42.1c2.6,0,4.8,1,6.6,2.9
			c1.9,1.9,2.8,4.3,2.8,7c0,2.7-0.9,5.1-2.8,7c-1.9,1.9-4.1,2.9-6.6,2.9h-32.7v21.3h20.4c2.7,0,4.9,1,6.8,2.9c1.9,1.9,2.8,4.3,2.8,7
			c0,2.7-0.9,5.1-2.8,7c-1.9,1.9-4.1,2.9-6.8,2.9h-20.4v21.3H816.5z"/>
	</g>
	<g>
		<path class="st0" d="M994.6,509.8c1,3.3,0.6,6.3-1.3,9c-0.9,1.3-2,2.3-3.4,3.1c-1.4,0.7-2.8,1.1-4.4,1.1c-2,0-3.8-0.6-5.5-1.9
			c-1.7-1.2-2.8-2.9-3.5-4.8l-1.9-6h-37.3l-1.9,6c-0.9,2.6-2.5,4.5-4.8,5.7c-2.3,1.2-4.7,1.3-7.2,0.4c-2.5-0.9-4.3-2.6-5.5-5
			c-1.2-2.4-1.4-4.9-0.6-7.5l26.6-82.5c0.7-2,1.8-3.6,3.4-4.8c1.6-1.2,3.5-1.9,5.6-1.9h6.3c2,0,3.8,0.6,5.5,1.9
			c1.7,1.2,2.8,2.9,3.5,5L994.6,509.8z M943.9,490.2h24.4L956.2,452L943.9,490.2z"/>
	</g>
	<g>
		<path class="st0" d="M904.1,477c3.8-6.1,5.6-12.8,5.6-20.1c-0.1-10-3.6-18.6-10.6-25.7c-7-7.1-15.4-10.6-25.1-10.6h-24.3
			c-2.7,0-4.9,1-6.8,2.9c-1.9,1.9-2.8,4.3-2.8,7.1l0,0c0,5.4,4.4,9.8,9.8,9.8h9.2h10.8h4.8c2.9,0,5.5,0.7,8,2.2
			c2.5,1.5,4.4,3.5,5.9,6s2.1,5.3,2.1,8.4c0,4.6-1.6,8.5-4.7,11.7c-3.1,3.2-6.9,4.8-11.3,4.8h-4.8h-10.8h-9.1
			c-5.5,0-9.9,4.4-9.9,9.9v0c0,5.5,4.5,10,10,10h9h1.4h6.7l18.1,25.4c1.9,2.6,4.5,3.9,7.7,3.9c1.7,0,3.4-0.5,4.9-1.5
			c1.6-1,2.7-2.3,3.5-4c1.8-3.7,1.5-7.2-0.9-10.4l-11.9-16.4C895.3,487.7,900.3,483.2,904.1,477z"/>
	</g>
</g>
</svg>
